<svg width="130" height="44" viewBox="0 0 130 44" fill="none" xmlns="http://www.w3.org/2000/svg">
<path d="M14.5278 21.504C16.3198 21.504 17.6852 21.0986 18.6238 20.288C19.6052 19.4346 20.0958 18.1546 20.0958 16.448C20.0958 14.8266 19.5838 13.5893 18.5598 12.736C17.5785 11.84 16.1278 11.392 14.2078 11.392C13.5252 11.392 12.9492 11.4133 12.4798 11.456C12.0532 11.456 11.6052 11.4986 11.1358 11.584V21.504H14.5278ZM11.1998 42.048C10.7305 42.176 9.98384 42.304 8.95984 42.432C7.97851 42.56 6.99718 42.624 6.01584 42.624C5.03451 42.624 4.15984 42.5386 3.39184 42.368C2.66651 42.24 2.04784 41.984 1.53584 41.6C1.02384 41.216 0.639844 40.6826 0.383844 40C0.127844 39.3173 -0.000155926 38.4213 -0.000155926 37.312V7.16795C-0.000155926 6.27195 0.234511 5.58929 0.703844 5.11995C1.21584 4.60795 1.89851 4.20262 2.75184 3.90395C4.20251 3.39195 5.84518 3.02929 7.67984 2.81595C9.55718 2.55995 11.4345 2.43195 13.3118 2.43195C19.1998 2.43195 23.7012 3.69062 26.8158 6.20795C29.9305 8.72529 31.4878 12.1386 31.4878 16.448C31.4878 18.5386 31.1465 20.4373 30.4638 22.144C29.8238 23.808 28.8425 25.2586 27.5198 26.496C26.2398 27.6906 24.5972 28.6293 22.5918 29.312C20.6292 29.952 18.3465 30.272 15.7438 30.272H11.1998V42.048ZM44.2273 42.24C43.758 42.3253 43.054 42.432 42.1153 42.56C41.2193 42.7306 40.302 42.816 39.3633 42.816C38.4247 42.816 37.5713 42.752 36.8033 42.624C36.078 42.496 35.4593 42.24 34.9473 41.856C34.4353 41.472 34.03 40.96 33.7313 40.32C33.4753 39.6373 33.3473 38.7626 33.3473 37.696V0.575954C33.8167 0.49062 34.4993 0.383953 35.3953 0.255955C36.334 0.0852877 37.2727 -4.57764e-05 38.2113 -4.57764e-05C39.15 -4.57764e-05 39.982 0.0639534 40.7073 0.191952C41.4753 0.319953 42.1153 0.575953 42.6273 0.959953C43.1393 1.34395 43.5233 1.87729 43.7793 2.55995C44.078 3.19995 44.2273 4.05329 44.2273 5.11995V42.24ZM47.8928 11.648C48.3195 11.52 48.9808 11.392 49.8768 11.264C50.8155 11.136 51.7755 11.072 52.7568 11.072C53.6955 11.072 54.5275 11.136 55.2528 11.264C56.0208 11.392 56.6608 11.648 57.1728 12.032C57.6848 12.416 58.0688 12.9493 58.3248 13.632C58.6235 14.272 58.7728 15.1253 58.7728 16.192V29.952C58.7728 31.7013 59.1995 32.96 60.0528 33.728C60.9062 34.4533 62.1435 34.816 63.7648 34.816C64.7462 34.816 65.5355 34.7306 66.1328 34.56C66.7728 34.3893 67.2635 34.2186 67.6048 34.048V11.648C68.0315 11.52 68.6928 11.392 69.5888 11.264C70.5275 11.136 71.4875 11.072 72.4688 11.072C73.4075 11.072 74.2395 11.136 74.9648 11.264C75.7328 11.392 76.3728 11.648 76.8848 12.032C77.3968 12.416 77.7808 12.9493 78.0368 13.632C78.3355 14.272 78.4848 15.1253 78.4848 16.192V35.648C78.4848 37.7813 77.5888 39.3813 75.7968 40.448C74.3035 41.3866 72.5115 42.0906 70.4208 42.56C68.3728 43.072 66.1328 43.328 63.7008 43.328C61.3968 43.328 59.2635 43.072 57.3008 42.56C55.3808 42.048 53.7168 41.2586 52.3088 40.192C50.9008 39.1253 49.8128 37.76 49.0448 36.096C48.2768 34.3893 47.8928 32.3413 47.8928 29.952V11.648ZM96.8548 10.24C98.6042 10.24 100.311 10.496 101.975 11.008C103.682 11.4773 105.154 12.2026 106.391 13.184C107.671 12.3306 109.1 11.6266 110.679 11.072C112.3 10.5173 114.242 10.24 116.503 10.24C118.124 10.24 119.703 10.4533 121.239 10.88C122.818 11.3066 124.204 11.9893 125.399 12.928C126.636 13.824 127.618 15.04 128.343 16.576C129.068 18.0693 129.431 19.904 129.431 22.08V42.24C129.004 42.368 128.322 42.496 127.383 42.624C126.487 42.752 125.548 42.816 124.567 42.816C123.628 42.816 122.775 42.752 122.007 42.624C121.282 42.496 120.663 42.24 120.151 41.856C119.639 41.472 119.234 40.96 118.935 40.32C118.679 39.6373 118.551 38.7626 118.551 37.696V22.4C118.551 21.12 118.188 20.2026 117.463 19.648C116.738 19.0506 115.756 18.752 114.519 18.752C113.922 18.752 113.282 18.9013 112.599 19.2C111.916 19.456 111.404 19.7333 111.063 20.032C111.106 20.2026 111.127 20.3733 111.127 20.544C111.127 20.672 111.127 20.8 111.127 20.928V42.24C110.658 42.368 109.954 42.496 109.015 42.624C108.119 42.752 107.202 42.816 106.263 42.816C105.324 42.816 104.471 42.752 103.703 42.624C102.978 42.496 102.359 42.24 101.847 41.856C101.335 41.472 100.93 40.96 100.631 40.32C100.375 39.6373 100.247 38.7626 100.247 37.696V22.4C100.247 21.12 99.8415 20.2026 99.0308 19.648C98.2628 19.0506 97.3242 18.752 96.2148 18.752C95.4468 18.752 94.7855 18.88 94.2308 19.136C93.6762 19.3493 93.2068 19.5626 92.8228 19.776V42.24C92.3962 42.368 91.7135 42.496 90.7748 42.624C89.8788 42.752 88.9402 42.816 87.9588 42.816C87.0202 42.816 86.1668 42.752 85.3988 42.624C84.6735 42.496 84.0548 42.24 83.5428 41.856C83.0308 41.472 82.6255 40.96 82.3268 40.32C82.0708 39.6373 81.9428 38.7626 81.9428 37.696V18.368C81.9428 17.216 82.1775 16.2986 82.6468 15.616C83.1588 14.9333 83.8415 14.2933 84.6948 13.696C86.1455 12.672 87.9375 11.84 90.0708 11.2C92.2468 10.56 94.5082 10.24 96.8548 10.24Z" fill="#7B4CFE"/>
</svg>
