<svg width="current" height="current" viewBox="0 0 24 24" fill="none" xmlns="http://www.w3.org/2000/svg">
<path d="M11.2041 13.5459L7.45406 9.79594C7.24272 9.58459 7.12399 9.29795 7.12399 8.99906C7.12399 8.70018 7.24272 8.41353 7.45406 8.20219C7.66541 7.99084 7.95205 7.87211 8.25094 7.87211C8.54982 7.87211 8.83647 7.99084 9.04781 8.20219L10.875 10.0312V2.25C10.875 1.95163 10.9935 1.66548 11.2045 1.4545C11.4155 1.24353 11.7016 1.125 12 1.125C12.2984 1.125 12.5845 1.24353 12.7955 1.4545C13.0065 1.66548 13.125 1.95163 13.125 2.25V10.0312L14.9541 8.20406C15.0587 8.09942 15.1829 8.0164 15.3197 7.95977C15.4564 7.90314 15.6029 7.87399 15.7509 7.87399C16.0498 7.87399 16.3365 7.99272 16.5478 8.20406C16.7592 8.41541 16.8779 8.70205 16.8779 9.00094C16.8779 9.29982 16.7592 9.58647 16.5478 9.79781L12.7978 13.5478C12.6932 13.6526 12.5689 13.7356 12.4321 13.7923C12.2953 13.8489 12.1486 13.8779 12.0005 13.8778C11.8525 13.8776 11.7059 13.8482 11.5692 13.7912C11.4325 13.7343 11.3085 13.6509 11.2041 13.5459ZM21.375 18.75V12.75C21.375 12.4516 21.2565 12.1655 21.0455 11.9545C20.8345 11.7435 20.5484 11.625 20.25 11.625C19.9516 11.625 19.6655 11.7435 19.4545 11.9545C19.2435 12.1655 19.125 12.4516 19.125 12.75V17.625H4.875V12.75C4.875 12.4516 4.75647 12.1655 4.54549 11.9545C4.33452 11.7435 4.04837 11.625 3.75 11.625C3.45163 11.625 3.16548 11.7435 2.95451 11.9545C2.74353 12.1655 2.625 12.4516 2.625 12.75V18.75C2.625 19.0484 2.74353 19.3345 2.95451 19.5455C3.16548 19.7565 3.45163 19.875 3.75 19.875H20.25C20.5484 19.875 20.8345 19.7565 21.0455 19.5455C21.2565 19.3345 21.375 19.0484 21.375 18.75Z" fill="currentColor"/>
</svg>
