<svg viewBox="0 0 16 16" fill="none" xmlns="http://www.w3.org/2000/svg">
<path d="M14.6666 9.98123V11.9048C14.6666 12.2837 14.5262 12.647 14.2761 12.915C14.0261 13.1829 13.6869 13.3334 13.3333 13.3334H2.66665C2.31302 13.3334 1.97389 13.1829 1.72384 12.915C1.47379 12.647 1.33331 12.2837 1.33331 11.9048V4.76195C1.33331 4.38306 1.47379 4.0197 1.72384 3.75179C1.97389 3.48388 2.31302 3.33337 2.66665 3.33337H8.46198" stroke="currentColor" stroke-width="1.5" stroke-linecap="round" stroke-linejoin="round"/>
<path d="M3.48148 8H9.18519C9.6352 8 10 8.29848 10 8.66667V11.3333C10 11.7015 9.6352 12 9.18519 12H3.48148C3.03147 12 2.66667 11.7015 2.66667 11.3333V8.66667C2.66667 8.29848 3.03147 8 3.48148 8Z" fill="currentColor"/>
<path d="M12 6L15 3" stroke="currentColor" stroke-width="1.5" stroke-linecap="round" stroke-linejoin="round"/>
<path d="M11 4V7H14" stroke="currentColor" stroke-width="1.5" stroke-linecap="round" stroke-linejoin="round"/>
</svg>
