<svg width="current" height="current" viewBox="0 0 24 24" fill="none" xmlns="http://www.w3.org/2000/svg">
<path d="M21.0267 13.5001V19.5001C21.0267 19.699 20.9493 19.8898 20.8115 20.0304C20.6737 20.1711 20.4869 20.2501 20.292 20.2501H4.12874C3.93388 20.2501 3.74701 20.1711 3.60923 20.0304C3.47145 19.8898 3.39404 19.699 3.39404 19.5001V13.5001C3.39404 13.3012 3.47145 13.1104 3.60923 12.9698C3.74701 12.8291 3.93388 12.7501 4.12874 12.7501C4.32359 12.7501 4.51046 12.8291 4.64824 12.9698C4.78603 13.1104 4.86343 13.3012 4.86343 13.5001V18.7501H19.5573V13.5001C19.5573 13.3012 19.6347 13.1104 19.7725 12.9698C19.9103 12.8291 20.0971 12.7501 20.292 12.7501C20.4869 12.7501 20.6737 12.8291 20.8115 12.9698C20.9493 13.1104 21.0267 13.3012 21.0267 13.5001ZM9.0567 7.28073L11.4757 4.81041V13.5001C11.4757 13.699 11.5531 13.8898 11.6909 14.0304C11.8286 14.1711 12.0155 14.2501 12.2104 14.2501C12.4052 14.2501 12.5921 14.1711 12.7299 14.0304C12.8677 13.8898 12.9451 13.699 12.9451 13.5001V4.81041L15.364 7.28073C15.5019 7.42146 15.6889 7.50052 15.8838 7.50052C16.0788 7.50052 16.2658 7.42146 16.4036 7.28073C16.5415 7.14 16.6189 6.94912 16.6189 6.7501C16.6189 6.55108 16.5415 6.36021 16.4036 6.21948L12.7302 2.46948C12.6619 2.39974 12.5809 2.34442 12.4917 2.30668C12.4025 2.26894 12.3069 2.24951 12.2104 2.24951C12.1138 2.24951 12.0182 2.26894 11.929 2.30668C11.8398 2.34442 11.7588 2.39974 11.6906 2.46948L8.0171 6.21948C7.87925 6.36021 7.8018 6.55108 7.8018 6.7501C7.8018 6.94912 7.87925 7.14 8.0171 7.28073C8.15496 7.42146 8.34194 7.50052 8.5369 7.50052C8.73186 7.50052 8.91884 7.42146 9.0567 7.28073Z" fill="currentColor"/>
</svg>
